{
	"asset":{
		"generator":"Khronos glTF Blender I/O v4.0.43",
		"version":"2.0"
	},
	"scene":0,
	"scenes":[
		{
			"name":"Scene",
			"nodes":[
				0
			]
		}
	],
	"nodes":[
		{
			"mesh":0,
			"name":"Mesh_0"
		}
	],
	"materials":[
		{
			"name":"Material_0",
			"normalTexture":{
				"index":0
			},
			"occlusionTexture":{
				"index":1
			},
			"pbrMetallicRoughness":{
				"baseColorTexture":{
					"index":2
				},
				"metallicFactor":0,
				"metallicRoughnessTexture":{
					"index":1
				}
			}
		}
	],
	"meshes":[
		{
			"name":"Mesh_0",
			"primitives":[
				{
					"attributes":{
						"POSITION":0,
						"NORMAL":1,
						"TEXCOORD_0":2
					},
					"indices":3,
					"material":0
				}
			]
		}
	],
	"textures":[
		{
			"sampler":0,
			"source":0
		},
		{
			"sampler":0,
			"source":1
		},
		{
			"sampler":0,
			"source":2
		}
	],
	"images":[
		{
			"mimeType":"image/jpeg",
			"name":"Image_1",
			"uri":"textures/Image_1.jpg"
		},
		{
			"mimeType":"image/png",
			"name":"Image_2-Image_3",
			"uri":"textures/Image_2-Image_3.png"
		},
		{
			"mimeType":"image/jpeg",
			"name":"Image_0",
			"uri":"textures/Image_0.jpg"
		}
	],
	"accessors":[
		{
			"bufferView":0,
			"componentType":5126,
			"count":135737,
			"max":[
				12.205589294433594,
				3.284909963607788,
				12.739044189453125
			],
			"min":[
				-12.205589294433594,
				-3.284909963607788,
				-12.739046096801758
			],
			"type":"VEC3"
		},
		{
			"bufferView":1,
			"componentType":5126,
			"count":135737,
			"type":"VEC3"
		},
		{
			"bufferView":2,
			"componentType":5126,
			"count":135737,
			"type":"VEC2"
		},
		{
			"bufferView":3,
			"componentType":5125,
			"count":750000,
			"type":"SCALAR"
		}
	],
	"bufferViews":[
		{
			"buffer":0,
			"byteLength":1628844,
			"byteOffset":0,
			"target":34962
		},
		{
			"buffer":0,
			"byteLength":1628844,
			"byteOffset":1628844,
			"target":34962
		},
		{
			"buffer":0,
			"byteLength":1085896,
			"byteOffset":3257688,
			"target":34962
		},
		{
			"buffer":0,
			"byteLength":3000000,
			"byteOffset":4343584,
			"target":34963
		}
	],
	"samplers":[
		{
			"magFilter":9729,
			"minFilter":9987
		}
	],
	"buffers":[
		{
			"byteLength":7343584,
			"uri":"untitled.bin"
		}
	]
}
